<mxfile host="app.diagrams.net" agent="Mozilla/5.0 (X11; Ubuntu; Linux x86_64; rv:136.0) Gecko/20100101 Firefox/136.0" version="26.1.1">
  <diagram name="Page-1" id="S9IGUzXnpJJAWe1WNVM6">
    <mxGraphModel dx="2707" dy="1093" grid="1" gridSize="10" guides="1" tooltips="1" connect="1" arrows="1" fold="1" page="1" pageScale="1" pageWidth="850" pageHeight="1100" math="0" shadow="0">
      <root>
        <mxCell id="0" />
        <mxCell id="1" parent="0" />
        <mxCell id="c33rpvAg6YKPD7jpbMuT-11" value="AWS Cloud" style="sketch=0;outlineConnect=0;gradientColor=none;html=1;whiteSpace=wrap;fontSize=12;fontStyle=0;shape=mxgraph.aws4.group;grIcon=mxgraph.aws4.group_aws_cloud;strokeColor=default;fillColor=none;verticalAlign=top;align=left;spacingLeft=30;fontColor=#AAB7B8;dashed=0;" vertex="1" parent="1">
          <mxGeometry x="-50" y="40" width="1010" height="1000" as="geometry" />
        </mxCell>
        <mxCell id="lF_zRqPbyFzeSfrfxNEX-1" value="Region" style="sketch=0;outlineConnect=0;gradientColor=none;html=1;whiteSpace=wrap;fontSize=12;fontStyle=0;shape=mxgraph.aws4.group;grIcon=mxgraph.aws4.group_region;strokeColor=default;fillColor=none;verticalAlign=top;align=left;spacingLeft=30;fontColor=#879196;dashed=1;" parent="1" vertex="1">
          <mxGeometry x="40" y="80" width="400" height="920" as="geometry" />
        </mxCell>
        <mxCell id="lF_zRqPbyFzeSfrfxNEX-2" value="Region" style="sketch=0;outlineConnect=0;gradientColor=none;html=1;whiteSpace=wrap;fontSize=12;fontStyle=0;shape=mxgraph.aws4.group;grIcon=mxgraph.aws4.group_region;strokeColor=default;fillColor=none;verticalAlign=top;align=left;spacingLeft=30;fontColor=#879196;dashed=1;" parent="1" vertex="1">
          <mxGeometry x="520" y="80" width="400" height="920" as="geometry" />
        </mxCell>
        <mxCell id="lF_zRqPbyFzeSfrfxNEX-3" value="&lt;b&gt;&lt;font style=&quot;font-size: 18px;&quot;&gt;Primary Region (eu-west-1)&lt;/font&gt;&lt;/b&gt;" style="text;html=1;align=center;verticalAlign=middle;whiteSpace=wrap;rounded=0;" parent="1" vertex="1">
          <mxGeometry x="120" y="90" width="270" height="30" as="geometry" />
        </mxCell>
        <mxCell id="lF_zRqPbyFzeSfrfxNEX-4" value="&lt;b&gt;&lt;font style=&quot;font-size: 18px;&quot;&gt;DR Region (us-west-2)&lt;/font&gt;&lt;/b&gt;" style="text;html=1;align=center;verticalAlign=middle;whiteSpace=wrap;rounded=0;" parent="1" vertex="1">
          <mxGeometry x="600" y="90" width="270" height="30" as="geometry" />
        </mxCell>
        <mxCell id="lF_zRqPbyFzeSfrfxNEX-33" style="edgeStyle=orthogonalEdgeStyle;rounded=0;orthogonalLoop=1;jettySize=auto;html=1;" parent="1" source="lF_zRqPbyFzeSfrfxNEX-5" target="lF_zRqPbyFzeSfrfxNEX-28" edge="1">
          <mxGeometry relative="1" as="geometry" />
        </mxCell>
        <mxCell id="lF_zRqPbyFzeSfrfxNEX-5" value="Amazon S3" style="sketch=0;outlineConnect=0;fontColor=#232F3E;gradientColor=none;strokeColor=#ffffff;fillColor=#232F3E;dashed=0;verticalLabelPosition=middle;verticalAlign=bottom;align=center;html=1;whiteSpace=wrap;fontSize=10;fontStyle=1;spacing=3;shape=mxgraph.aws4.productIcon;prIcon=mxgraph.aws4.s3;" parent="1" vertex="1">
          <mxGeometry x="198" y="860" width="80" height="100" as="geometry" />
        </mxCell>
        <mxCell id="lF_zRqPbyFzeSfrfxNEX-21" value="" style="edgeStyle=orthogonalEdgeStyle;rounded=0;orthogonalLoop=1;jettySize=auto;html=1;" parent="1" source="lF_zRqPbyFzeSfrfxNEX-6" target="lF_zRqPbyFzeSfrfxNEX-5" edge="1">
          <mxGeometry relative="1" as="geometry" />
        </mxCell>
        <mxCell id="lF_zRqPbyFzeSfrfxNEX-34" style="edgeStyle=orthogonalEdgeStyle;rounded=0;orthogonalLoop=1;jettySize=auto;html=1;" parent="1" source="lF_zRqPbyFzeSfrfxNEX-6" target="lF_zRqPbyFzeSfrfxNEX-27" edge="1">
          <mxGeometry relative="1" as="geometry" />
        </mxCell>
        <mxCell id="lF_zRqPbyFzeSfrfxNEX-6" value="Amazon RDS" style="sketch=0;outlineConnect=0;fontColor=#232F3E;gradientColor=none;strokeColor=#ffffff;fillColor=#232F3E;dashed=0;verticalLabelPosition=middle;verticalAlign=bottom;align=center;html=1;whiteSpace=wrap;fontSize=10;fontStyle=1;spacing=3;shape=mxgraph.aws4.productIcon;prIcon=mxgraph.aws4.rds;" parent="1" vertex="1">
          <mxGeometry x="199" y="703" width="80" height="100" as="geometry" />
        </mxCell>
        <mxCell id="lF_zRqPbyFzeSfrfxNEX-19" value="" style="edgeStyle=orthogonalEdgeStyle;rounded=0;orthogonalLoop=1;jettySize=auto;html=1;" parent="1" source="lF_zRqPbyFzeSfrfxNEX-11" target="lF_zRqPbyFzeSfrfxNEX-9" edge="1">
          <mxGeometry relative="1" as="geometry" />
        </mxCell>
        <mxCell id="lF_zRqPbyFzeSfrfxNEX-11" value="Application Load Balancer" style="sketch=0;outlineConnect=0;fontColor=#232F3E;gradientColor=none;strokeColor=#ffffff;fillColor=#232F3E;dashed=0;verticalLabelPosition=middle;verticalAlign=bottom;align=center;html=1;whiteSpace=wrap;fontSize=10;fontStyle=1;spacing=3;shape=mxgraph.aws4.productIcon;prIcon=mxgraph.aws4.application_load_balancer;" parent="1" vertex="1">
          <mxGeometry x="200" y="320" width="80" height="110" as="geometry" />
        </mxCell>
        <mxCell id="lF_zRqPbyFzeSfrfxNEX-12" value="" style="group" parent="1" vertex="1" connectable="0">
          <mxGeometry x="170" y="480" width="140" height="160" as="geometry" />
        </mxCell>
        <mxCell id="lF_zRqPbyFzeSfrfxNEX-8" value="Auto Scaling group" style="points=[[0,0],[0.25,0],[0.5,0],[0.75,0],[1,0],[1,0.25],[1,0.5],[1,0.75],[1,1],[0.75,1],[0.5,1],[0.25,1],[0,1],[0,0.75],[0,0.5],[0,0.25]];outlineConnect=0;gradientColor=none;html=1;whiteSpace=wrap;fontSize=12;fontStyle=0;container=1;pointerEvents=0;collapsible=0;recursiveResize=0;shape=mxgraph.aws4.groupCenter;grIcon=mxgraph.aws4.group_auto_scaling_group;grStroke=1;strokeColor=#D86613;fillColor=none;verticalAlign=top;align=center;fontColor=#D86613;dashed=1;spacingTop=25;" parent="lF_zRqPbyFzeSfrfxNEX-12" vertex="1">
          <mxGeometry width="140" height="160" as="geometry" />
        </mxCell>
        <mxCell id="lF_zRqPbyFzeSfrfxNEX-9" value="Amazon EC2" style="sketch=0;outlineConnect=0;fontColor=#232F3E;gradientColor=none;strokeColor=#ffffff;fillColor=#232F3E;dashed=0;verticalLabelPosition=middle;verticalAlign=bottom;align=center;html=1;whiteSpace=wrap;fontSize=10;fontStyle=1;spacing=3;shape=mxgraph.aws4.productIcon;prIcon=mxgraph.aws4.ec2;" parent="lF_zRqPbyFzeSfrfxNEX-12" vertex="1">
          <mxGeometry x="30" y="50" width="80" height="100" as="geometry" />
        </mxCell>
        <mxCell id="lF_zRqPbyFzeSfrfxNEX-18" value="" style="edgeStyle=orthogonalEdgeStyle;rounded=0;orthogonalLoop=1;jettySize=auto;html=1;" parent="1" source="lF_zRqPbyFzeSfrfxNEX-13" target="lF_zRqPbyFzeSfrfxNEX-11" edge="1">
          <mxGeometry relative="1" as="geometry" />
        </mxCell>
        <mxCell id="lF_zRqPbyFzeSfrfxNEX-13" value="Amazon Route 53" style="sketch=0;outlineConnect=0;fontColor=#232F3E;gradientColor=none;strokeColor=#ffffff;fillColor=#232F3E;dashed=0;verticalLabelPosition=middle;verticalAlign=bottom;align=center;html=1;whiteSpace=wrap;fontSize=10;fontStyle=1;spacing=3;shape=mxgraph.aws4.productIcon;prIcon=mxgraph.aws4.route_53;" parent="1" vertex="1">
          <mxGeometry x="200" y="160" width="80" height="110" as="geometry" />
        </mxCell>
        <mxCell id="lF_zRqPbyFzeSfrfxNEX-20" value="" style="edgeStyle=orthogonalEdgeStyle;rounded=0;orthogonalLoop=1;jettySize=auto;html=1;" parent="1" source="lF_zRqPbyFzeSfrfxNEX-8" target="lF_zRqPbyFzeSfrfxNEX-6" edge="1">
          <mxGeometry relative="1" as="geometry" />
        </mxCell>
        <mxCell id="c33rpvAg6YKPD7jpbMuT-2" value="" style="edgeStyle=orthogonalEdgeStyle;rounded=0;orthogonalLoop=1;jettySize=auto;html=1;" edge="1" parent="1" source="lF_zRqPbyFzeSfrfxNEX-23" target="lF_zRqPbyFzeSfrfxNEX-27">
          <mxGeometry relative="1" as="geometry" />
        </mxCell>
        <mxCell id="lF_zRqPbyFzeSfrfxNEX-23" value="Application Load Balancer" style="sketch=0;outlineConnect=0;fontColor=#232F3E;gradientColor=none;strokeColor=#ffffff;fillColor=#232F3E;dashed=0;verticalLabelPosition=middle;verticalAlign=bottom;align=center;html=1;whiteSpace=wrap;fontSize=10;fontStyle=1;spacing=3;shape=mxgraph.aws4.productIcon;prIcon=mxgraph.aws4.application_load_balancer;" parent="1" vertex="1">
          <mxGeometry x="676" y="510" width="80" height="110" as="geometry" />
        </mxCell>
        <mxCell id="lF_zRqPbyFzeSfrfxNEX-24" value="" style="group" parent="1" vertex="1" connectable="0">
          <mxGeometry x="620" y="150" width="190" height="190.01" as="geometry" />
        </mxCell>
        <mxCell id="lF_zRqPbyFzeSfrfxNEX-25" value="Auto Scaling group" style="points=[[0,0],[0.25,0],[0.5,0],[0.75,0],[1,0],[1,0.25],[1,0.5],[1,0.75],[1,1],[0.75,1],[0.5,1],[0.25,1],[0,1],[0,0.75],[0,0.5],[0,0.25]];outlineConnect=0;gradientColor=none;html=1;whiteSpace=wrap;fontSize=12;fontStyle=0;container=1;pointerEvents=0;collapsible=0;recursiveResize=0;shape=mxgraph.aws4.groupCenter;grIcon=mxgraph.aws4.group_auto_scaling_group;grStroke=1;strokeColor=#D86613;fillColor=none;verticalAlign=top;align=center;fontColor=#D86613;dashed=1;spacingTop=25;" parent="lF_zRqPbyFzeSfrfxNEX-24" vertex="1">
          <mxGeometry width="190" height="190" as="geometry" />
        </mxCell>
        <mxCell id="c33rpvAg6YKPD7jpbMuT-10" value="&lt;font style=&quot;font-size: 18px;&quot;&gt;(Scaled Down)&lt;/font&gt;" style="text;html=1;align=center;verticalAlign=middle;whiteSpace=wrap;rounded=0;" vertex="1" parent="lF_zRqPbyFzeSfrfxNEX-25">
          <mxGeometry x="-59.289999999999964" y="109.69999999999999" width="100" height="30" as="geometry" />
        </mxCell>
        <mxCell id="lF_zRqPbyFzeSfrfxNEX-26" value="Amazon EC2" style="sketch=0;outlineConnect=0;fontColor=#232F3E;gradientColor=none;strokeColor=#ffffff;fillColor=#232F3E;dashed=0;verticalLabelPosition=middle;verticalAlign=bottom;align=center;html=1;whiteSpace=wrap;fontSize=10;fontStyle=1;spacing=3;shape=mxgraph.aws4.productIcon;prIcon=mxgraph.aws4.ec2;" parent="lF_zRqPbyFzeSfrfxNEX-24" vertex="1">
          <mxGeometry x="40.71" y="59.38" width="108.57" height="130.63" as="geometry" />
        </mxCell>
        <mxCell id="lF_zRqPbyFzeSfrfxNEX-32" value="" style="edgeStyle=orthogonalEdgeStyle;rounded=0;orthogonalLoop=1;jettySize=auto;html=1;" parent="1" source="lF_zRqPbyFzeSfrfxNEX-27" target="lF_zRqPbyFzeSfrfxNEX-28" edge="1">
          <mxGeometry relative="1" as="geometry" />
        </mxCell>
        <mxCell id="lF_zRqPbyFzeSfrfxNEX-27" value="Amazon RDS" style="sketch=0;outlineConnect=0;fontColor=#232F3E;gradientColor=none;strokeColor=#ffffff;fillColor=#232F3E;dashed=0;verticalLabelPosition=middle;verticalAlign=bottom;align=center;html=1;whiteSpace=wrap;fontSize=10;fontStyle=1;spacing=3;shape=mxgraph.aws4.productIcon;prIcon=mxgraph.aws4.rds;" parent="1" vertex="1">
          <mxGeometry x="677" y="703" width="80" height="100" as="geometry" />
        </mxCell>
        <mxCell id="lF_zRqPbyFzeSfrfxNEX-28" value="Amazon S3" style="sketch=0;outlineConnect=0;fontColor=#232F3E;gradientColor=none;strokeColor=#ffffff;fillColor=#232F3E;dashed=0;verticalLabelPosition=middle;verticalAlign=bottom;align=center;html=1;whiteSpace=wrap;fontSize=10;fontStyle=1;spacing=3;shape=mxgraph.aws4.productIcon;prIcon=mxgraph.aws4.s3;" parent="1" vertex="1">
          <mxGeometry x="678" y="860" width="80" height="100" as="geometry" />
        </mxCell>
        <mxCell id="c33rpvAg6YKPD7jpbMuT-1" style="edgeStyle=orthogonalEdgeStyle;rounded=0;orthogonalLoop=1;jettySize=auto;html=1;entryX=0.033;entryY=0.337;entryDx=0;entryDy=0;entryPerimeter=0;" edge="1" parent="1" source="lF_zRqPbyFzeSfrfxNEX-13" target="lF_zRqPbyFzeSfrfxNEX-25">
          <mxGeometry relative="1" as="geometry" />
        </mxCell>
        <mxCell id="c33rpvAg6YKPD7jpbMuT-4" style="edgeStyle=orthogonalEdgeStyle;rounded=0;orthogonalLoop=1;jettySize=auto;html=1;" edge="1" parent="1" source="lF_zRqPbyFzeSfrfxNEX-25" target="lF_zRqPbyFzeSfrfxNEX-23">
          <mxGeometry relative="1" as="geometry" />
        </mxCell>
        <mxCell id="c33rpvAg6YKPD7jpbMuT-5" value="&lt;font style=&quot;font-size: 18px;&quot;&gt;Sync&lt;/font&gt;" style="text;html=1;align=center;verticalAlign=middle;whiteSpace=wrap;rounded=0;" vertex="1" parent="1">
          <mxGeometry x="450" y="710" width="60" height="30" as="geometry" />
        </mxCell>
        <mxCell id="c33rpvAg6YKPD7jpbMuT-6" value="&lt;font style=&quot;font-size: 18px;&quot;&gt;Replication&lt;/font&gt;" style="text;html=1;align=center;verticalAlign=middle;whiteSpace=wrap;rounded=0;" vertex="1" parent="1">
          <mxGeometry x="452" y="762" width="60" height="30" as="geometry" />
        </mxCell>
        <mxCell id="c33rpvAg6YKPD7jpbMuT-7" value="&lt;font style=&quot;font-size: 18px;&quot;&gt;Replication&lt;/font&gt;" style="text;html=1;align=center;verticalAlign=middle;whiteSpace=wrap;rounded=0;" vertex="1" parent="1">
          <mxGeometry x="450" y="932" width="60" height="30" as="geometry" />
        </mxCell>
        <mxCell id="c33rpvAg6YKPD7jpbMuT-8" value="&lt;font style=&quot;font-size: 18px;&quot;&gt;Sync&lt;/font&gt;" style="text;html=1;align=center;verticalAlign=middle;whiteSpace=wrap;rounded=0;" vertex="1" parent="1">
          <mxGeometry x="445" y="872" width="60" height="30" as="geometry" />
        </mxCell>
        <mxCell id="c33rpvAg6YKPD7jpbMuT-9" value="&lt;font style=&quot;font-size: 18px;&quot;&gt;Failover Policy&lt;/font&gt;" style="text;html=1;align=center;verticalAlign=middle;whiteSpace=wrap;rounded=0;" vertex="1" parent="1">
          <mxGeometry x="100" y="190" width="100" height="30" as="geometry" />
        </mxCell>
      </root>
    </mxGraphModel>
  </diagram>
</mxfile>
